<mxfile host="app.diagrams.net" modified="2022-10-26T13:08:31.163Z" agent="5.0 (Windows NT 10.0; Win64; x64) AppleWebKit/537.36 (KHTML, like Gecko) Chrome/106.0.0.0 Safari/537.36" etag="T7CK7rxXSVtrjjJp8Fas" version="20.5.1" type="github">
  <diagram id="kORWXo8z2lHCYU-cHMwj" name="Page-1">
    <mxGraphModel dx="2676" dy="781" grid="1" gridSize="10" guides="1" tooltips="1" connect="1" arrows="1" fold="1" page="1" pageScale="1" pageWidth="850" pageHeight="1100" math="0" shadow="0">
      <root>
        <mxCell id="0" />
        <mxCell id="1" parent="0" />
        <mxCell id="dhr_ioXj1obli_dX_mUs-1" value="RegCTRI" style="rounded=0;whiteSpace=wrap;html=1;" parent="1" vertex="1">
          <mxGeometry x="120" y="50" width="80" height="30" as="geometry" />
        </mxCell>
        <mxCell id="dhr_ioXj1obli_dX_mUs-2" value="RegDB" style="rounded=0;whiteSpace=wrap;html=1;" parent="1" vertex="1">
          <mxGeometry x="240" y="50" width="80" height="30" as="geometry" />
        </mxCell>
        <mxCell id="dhr_ioXj1obli_dX_mUs-3" value="Admin" style="rounded=0;whiteSpace=wrap;html=1;" parent="1" vertex="1">
          <mxGeometry x="360" y="50" width="80" height="30" as="geometry" />
        </mxCell>
        <mxCell id="dhr_ioXj1obli_dX_mUs-4" value="Modarator&amp;nbsp;" style="rounded=0;whiteSpace=wrap;html=1;" parent="1" vertex="1">
          <mxGeometry x="480" y="50" width="80" height="30" as="geometry" />
        </mxCell>
        <mxCell id="dhr_ioXj1obli_dX_mUs-5" value="Payment" style="rounded=0;whiteSpace=wrap;html=1;" parent="1" vertex="1">
          <mxGeometry x="720" y="50" width="80" height="30" as="geometry" />
        </mxCell>
        <mxCell id="dhr_ioXj1obli_dX_mUs-6" value="UserPro" style="rounded=0;whiteSpace=wrap;html=1;" parent="1" vertex="1">
          <mxGeometry x="600" y="50" width="80" height="30" as="geometry" />
        </mxCell>
        <mxCell id="dhr_ioXj1obli_dX_mUs-7" value="user" style="shape=umlActor;verticalLabelPosition=bottom;verticalAlign=top;html=1;outlineConnect=0;" parent="1" vertex="1">
          <mxGeometry x="-150" width="20" height="50" as="geometry" />
        </mxCell>
        <mxCell id="dhr_ioXj1obli_dX_mUs-8" value="RegUI" style="rounded=0;whiteSpace=wrap;html=1;" parent="1" vertex="1">
          <mxGeometry y="50" width="80" height="30" as="geometry" />
        </mxCell>
        <mxCell id="dhr_ioXj1obli_dX_mUs-9" value="UserCTRL" style="rounded=0;whiteSpace=wrap;html=1;" parent="1" vertex="1">
          <mxGeometry x="840" y="50" width="80" height="30" as="geometry" />
        </mxCell>
        <mxCell id="dhr_ioXj1obli_dX_mUs-10" value="UserDB" style="rounded=0;whiteSpace=wrap;html=1;" parent="1" vertex="1">
          <mxGeometry x="960" y="50" width="80" height="30" as="geometry" />
        </mxCell>
        <mxCell id="dhr_ioXj1obli_dX_mUs-11" value="" style="endArrow=none;dashed=1;html=1;rounded=0;" parent="1" target="dhr_ioXj1obli_dX_mUs-7" edge="1">
          <mxGeometry width="50" height="50" relative="1" as="geometry">
            <mxPoint x="-140" y="1100" as="sourcePoint" />
            <mxPoint x="-140" y="110" as="targetPoint" />
          </mxGeometry>
        </mxCell>
        <mxCell id="dhr_ioXj1obli_dX_mUs-12" value="" style="rounded=0;whiteSpace=wrap;html=1;" parent="1" vertex="1">
          <mxGeometry x="30" y="120" width="20" height="150" as="geometry" />
        </mxCell>
        <mxCell id="dhr_ioXj1obli_dX_mUs-13" value="" style="rounded=0;whiteSpace=wrap;html=1;" parent="1" vertex="1">
          <mxGeometry x="150" y="120" width="20" height="110" as="geometry" />
        </mxCell>
        <mxCell id="dhr_ioXj1obli_dX_mUs-14" value="" style="rounded=0;whiteSpace=wrap;html=1;" parent="1" vertex="1">
          <mxGeometry x="390" y="120" width="20" height="90" as="geometry" />
        </mxCell>
        <mxCell id="dhr_ioXj1obli_dX_mUs-15" value="" style="rounded=0;whiteSpace=wrap;html=1;" parent="1" vertex="1">
          <mxGeometry x="270" y="120" width="20" height="60" as="geometry" />
        </mxCell>
        <mxCell id="dhr_ioXj1obli_dX_mUs-16" value="" style="rounded=0;whiteSpace=wrap;html=1;" parent="1" vertex="1">
          <mxGeometry x="510" y="120" width="20" height="110" as="geometry" />
        </mxCell>
        <mxCell id="dhr_ioXj1obli_dX_mUs-17" value="User details ( )" style="text;html=1;align=center;verticalAlign=middle;resizable=0;points=[];autosize=1;strokeColor=none;fillColor=none;" parent="1" vertex="1">
          <mxGeometry x="-105" y="110" width="100" height="30" as="geometry" />
        </mxCell>
        <mxCell id="dhr_ioXj1obli_dX_mUs-18" value="Submit ( )" style="text;html=1;align=center;verticalAlign=middle;resizable=0;points=[];autosize=1;strokeColor=none;fillColor=none;" parent="1" vertex="1">
          <mxGeometry x="-100" y="220" width="80" height="30" as="geometry" />
        </mxCell>
        <mxCell id="dhr_ioXj1obli_dX_mUs-19" value="" style="endArrow=none;dashed=1;html=1;rounded=0;entryX=0.5;entryY=1;entryDx=0;entryDy=0;" parent="1" target="dhr_ioXj1obli_dX_mUs-8" edge="1">
          <mxGeometry width="50" height="50" relative="1" as="geometry">
            <mxPoint x="40" y="1405" as="sourcePoint" />
            <mxPoint x="400" y="190" as="targetPoint" />
          </mxGeometry>
        </mxCell>
        <mxCell id="dhr_ioXj1obli_dX_mUs-20" value="User details ( )" style="text;html=1;align=center;verticalAlign=middle;resizable=0;points=[];autosize=1;strokeColor=none;fillColor=none;" parent="1" vertex="1">
          <mxGeometry x="50" y="130" width="100" height="30" as="geometry" />
        </mxCell>
        <mxCell id="dhr_ioXj1obli_dX_mUs-21" value="" style="endArrow=none;dashed=1;html=1;rounded=0;entryX=0.5;entryY=1;entryDx=0;entryDy=0;" parent="1" target="dhr_ioXj1obli_dX_mUs-1" edge="1">
          <mxGeometry width="50" height="50" relative="1" as="geometry">
            <mxPoint x="160" y="1382.2857666015625" as="sourcePoint" />
            <mxPoint x="180" y="80" as="targetPoint" />
          </mxGeometry>
        </mxCell>
        <mxCell id="dhr_ioXj1obli_dX_mUs-22" value="" style="endArrow=none;dashed=1;html=1;rounded=0;entryX=0.5;entryY=1;entryDx=0;entryDy=0;" parent="1" target="dhr_ioXj1obli_dX_mUs-2" edge="1">
          <mxGeometry width="50" height="50" relative="1" as="geometry">
            <mxPoint x="280" y="1400" as="sourcePoint" />
            <mxPoint x="310" y="260" as="targetPoint" />
          </mxGeometry>
        </mxCell>
        <mxCell id="dhr_ioXj1obli_dX_mUs-23" value="User details ( )" style="text;html=1;align=center;verticalAlign=middle;resizable=0;points=[];autosize=1;strokeColor=none;fillColor=none;" parent="1" vertex="1">
          <mxGeometry x="285" y="180" width="100" height="30" as="geometry" />
        </mxCell>
        <mxCell id="dhr_ioXj1obli_dX_mUs-24" value="" style="endArrow=none;dashed=1;html=1;rounded=0;entryX=0.5;entryY=1;entryDx=0;entryDy=0;exitX=0.525;exitY=0.554;exitDx=0;exitDy=0;exitPerimeter=0;" parent="1" source="dhr_ioXj1obli_dX_mUs-77" target="dhr_ioXj1obli_dX_mUs-3" edge="1">
          <mxGeometry width="50" height="50" relative="1" as="geometry">
            <mxPoint x="400" y="240" as="sourcePoint" />
            <mxPoint x="350" y="270" as="targetPoint" />
          </mxGeometry>
        </mxCell>
        <mxCell id="dhr_ioXj1obli_dX_mUs-25" value="" style="endArrow=none;dashed=1;html=1;rounded=0;entryX=0.5;entryY=1;entryDx=0;entryDy=0;exitX=0.443;exitY=0.528;exitDx=0;exitDy=0;exitPerimeter=0;" parent="1" source="dhr_ioXj1obli_dX_mUs-76" target="dhr_ioXj1obli_dX_mUs-4" edge="1">
          <mxGeometry width="50" height="50" relative="1" as="geometry">
            <mxPoint x="520" y="240" as="sourcePoint" />
            <mxPoint x="550" y="270" as="targetPoint" />
          </mxGeometry>
        </mxCell>
        <mxCell id="dhr_ioXj1obli_dX_mUs-26" value="" style="endArrow=none;dashed=1;html=1;rounded=0;entryX=0.5;entryY=1;entryDx=0;entryDy=0;" parent="1" target="dhr_ioXj1obli_dX_mUs-10" edge="1">
          <mxGeometry width="50" height="50" relative="1" as="geometry">
            <mxPoint x="1000" y="1090" as="sourcePoint" />
            <mxPoint x="1030" y="300" as="targetPoint" />
          </mxGeometry>
        </mxCell>
        <mxCell id="dhr_ioXj1obli_dX_mUs-27" value="" style="rounded=0;whiteSpace=wrap;html=1;" parent="1" vertex="1">
          <mxGeometry x="630" y="310" width="20" height="60" as="geometry" />
        </mxCell>
        <mxCell id="dhr_ioXj1obli_dX_mUs-28" value="Pay method (Payment )" style="text;html=1;align=center;verticalAlign=middle;resizable=0;points=[];autosize=1;strokeColor=none;fillColor=none;" parent="1" vertex="1">
          <mxGeometry x="140" y="320" width="150" height="30" as="geometry" />
        </mxCell>
        <mxCell id="dhr_ioXj1obli_dX_mUs-29" value="" style="rounded=0;whiteSpace=wrap;html=1;" parent="1" vertex="1">
          <mxGeometry x="750" y="310" width="20" height="60" as="geometry" />
        </mxCell>
        <mxCell id="dhr_ioXj1obli_dX_mUs-30" value="" style="endArrow=classic;html=1;rounded=0;entryX=0;entryY=0.25;entryDx=0;entryDy=0;exitX=1;exitY=0.25;exitDx=0;exitDy=0;" parent="1" source="dhr_ioXj1obli_dX_mUs-27" target="dhr_ioXj1obli_dX_mUs-29" edge="1">
          <mxGeometry width="50" height="50" relative="1" as="geometry">
            <mxPoint x="400" y="350" as="sourcePoint" />
            <mxPoint x="450" y="300" as="targetPoint" />
          </mxGeometry>
        </mxCell>
        <mxCell id="dhr_ioXj1obli_dX_mUs-31" value="OTP ( )" style="html=1;verticalAlign=bottom;endArrow=open;dashed=1;endSize=8;rounded=0;entryX=1;entryY=0.75;entryDx=0;entryDy=0;exitX=0;exitY=0.75;exitDx=0;exitDy=0;" parent="1" source="dhr_ioXj1obli_dX_mUs-29" target="dhr_ioXj1obli_dX_mUs-27" edge="1">
          <mxGeometry relative="1" as="geometry">
            <mxPoint x="740" y="360" as="sourcePoint" />
            <mxPoint x="660" y="360" as="targetPoint" />
          </mxGeometry>
        </mxCell>
        <mxCell id="dhr_ioXj1obli_dX_mUs-32" value="Payment ( )" style="text;html=1;align=center;verticalAlign=middle;resizable=0;points=[];autosize=1;strokeColor=none;fillColor=none;" parent="1" vertex="1">
          <mxGeometry x="660" y="300" width="90" height="30" as="geometry" />
        </mxCell>
        <mxCell id="dhr_ioXj1obli_dX_mUs-33" value="" style="endArrow=open;endFill=1;endSize=12;html=1;rounded=0;" parent="1" edge="1">
          <mxGeometry width="160" relative="1" as="geometry">
            <mxPoint x="-140" y="130" as="sourcePoint" />
            <mxPoint x="30" y="130" as="targetPoint" />
          </mxGeometry>
        </mxCell>
        <mxCell id="dhr_ioXj1obli_dX_mUs-34" value="" style="endArrow=open;endFill=1;endSize=12;html=1;rounded=0;entryX=-0.1;entryY=0.847;entryDx=0;entryDy=0;entryPerimeter=0;" parent="1" target="dhr_ioXj1obli_dX_mUs-12" edge="1">
          <mxGeometry width="160" relative="1" as="geometry">
            <mxPoint x="-140" y="250" as="sourcePoint" />
            <mxPoint x="20" y="160" as="targetPoint" />
          </mxGeometry>
        </mxCell>
        <mxCell id="dhr_ioXj1obli_dX_mUs-35" value="" style="endArrow=open;endFill=1;endSize=12;html=1;rounded=0;" parent="1" edge="1">
          <mxGeometry width="160" relative="1" as="geometry">
            <mxPoint x="50" y="150" as="sourcePoint" />
            <mxPoint x="150" y="150" as="targetPoint" />
          </mxGeometry>
        </mxCell>
        <mxCell id="dhr_ioXj1obli_dX_mUs-36" value="" style="endArrow=open;endFill=1;endSize=12;html=1;rounded=0;" parent="1" edge="1">
          <mxGeometry width="160" relative="1" as="geometry">
            <mxPoint x="170" y="150" as="sourcePoint" />
            <mxPoint x="270" y="150" as="targetPoint" />
          </mxGeometry>
        </mxCell>
        <mxCell id="dhr_ioXj1obli_dX_mUs-37" value="User details ( )" style="text;html=1;align=center;verticalAlign=middle;resizable=0;points=[];autosize=1;strokeColor=none;fillColor=none;" parent="1" vertex="1">
          <mxGeometry x="165" y="130" width="100" height="30" as="geometry" />
        </mxCell>
        <mxCell id="dhr_ioXj1obli_dX_mUs-38" value="" style="endArrow=open;endFill=1;endSize=12;html=1;rounded=0;entryX=0.05;entryY=0.894;entryDx=0;entryDy=0;entryPerimeter=0;" parent="1" target="dhr_ioXj1obli_dX_mUs-14" edge="1">
          <mxGeometry width="160" relative="1" as="geometry">
            <mxPoint x="170" y="200" as="sourcePoint" />
            <mxPoint x="330" y="200" as="targetPoint" />
          </mxGeometry>
        </mxCell>
        <mxCell id="dhr_ioXj1obli_dX_mUs-39" value="" style="endArrow=open;endFill=1;endSize=12;html=1;rounded=0;entryX=0;entryY=0.5;entryDx=0;entryDy=0;" parent="1" target="dhr_ioXj1obli_dX_mUs-27" edge="1">
          <mxGeometry width="160" relative="1" as="geometry">
            <mxPoint x="-140" y="340" as="sourcePoint" />
            <mxPoint x="20" y="340" as="targetPoint" />
          </mxGeometry>
        </mxCell>
        <mxCell id="dhr_ioXj1obli_dX_mUs-40" value="" style="shape=umlBoundary;whiteSpace=wrap;html=1;" parent="1" vertex="1">
          <mxGeometry x="620" width="40" height="40" as="geometry" />
        </mxCell>
        <mxCell id="dhr_ioXj1obli_dX_mUs-41" value="" style="shape=umlBoundary;whiteSpace=wrap;html=1;" parent="1" vertex="1">
          <mxGeometry x="20" width="40" height="40" as="geometry" />
        </mxCell>
        <mxCell id="dhr_ioXj1obli_dX_mUs-42" value="" style="ellipse;shape=umlControl;whiteSpace=wrap;html=1;" parent="1" vertex="1">
          <mxGeometry x="140" width="40" height="40" as="geometry" />
        </mxCell>
        <mxCell id="dhr_ioXj1obli_dX_mUs-43" value="" style="ellipse;shape=umlControl;whiteSpace=wrap;html=1;" parent="1" vertex="1">
          <mxGeometry x="860" width="40" height="40" as="geometry" />
        </mxCell>
        <mxCell id="dhr_ioXj1obli_dX_mUs-44" value="" style="ellipse;shape=umlEntity;whiteSpace=wrap;html=1;" parent="1" vertex="1">
          <mxGeometry x="980" width="40" height="40" as="geometry" />
        </mxCell>
        <mxCell id="dhr_ioXj1obli_dX_mUs-45" value="" style="ellipse;shape=umlEntity;whiteSpace=wrap;html=1;" parent="1" vertex="1">
          <mxGeometry x="260" width="40" height="40" as="geometry" />
        </mxCell>
        <mxCell id="dhr_ioXj1obli_dX_mUs-46" value="" style="rounded=0;whiteSpace=wrap;html=1;" parent="1" vertex="1">
          <mxGeometry x="630" y="480" width="20" height="60" as="geometry" />
        </mxCell>
        <mxCell id="dhr_ioXj1obli_dX_mUs-47" value="" style="rounded=0;whiteSpace=wrap;html=1;" parent="1" vertex="1">
          <mxGeometry x="750" y="480" width="20" height="60" as="geometry" />
        </mxCell>
        <mxCell id="dhr_ioXj1obli_dX_mUs-48" value="Loop" style="shape=umlFrame;whiteSpace=wrap;html=1;" parent="1" vertex="1">
          <mxGeometry x="-140" y="440" width="940" height="140" as="geometry" />
        </mxCell>
        <mxCell id="dhr_ioXj1obli_dX_mUs-49" value="" style="endArrow=none;dashed=1;html=1;rounded=0;" parent="1" target="dhr_ioXj1obli_dX_mUs-5" edge="1">
          <mxGeometry width="50" height="50" relative="1" as="geometry">
            <mxPoint x="760" y="580" as="sourcePoint" />
            <mxPoint x="790" y="180" as="targetPoint" />
          </mxGeometry>
        </mxCell>
        <mxCell id="dhr_ioXj1obli_dX_mUs-50" value="[If OTP==&quot;Wrong&quot;]" style="text;html=1;strokeColor=none;fillColor=none;align=center;verticalAlign=middle;whiteSpace=wrap;rounded=0;" parent="1" vertex="1">
          <mxGeometry x="-100" y="440" width="160" height="30" as="geometry" />
        </mxCell>
        <mxCell id="dhr_ioXj1obli_dX_mUs-51" value="Resend OTP" style="html=1;verticalAlign=bottom;endArrow=block;rounded=0;" parent="1" edge="1">
          <mxGeometry width="80" relative="1" as="geometry">
            <mxPoint x="650" y="490" as="sourcePoint" />
            <mxPoint x="750" y="490" as="targetPoint" />
          </mxGeometry>
        </mxCell>
        <mxCell id="dhr_ioXj1obli_dX_mUs-52" value="OTP ( )" style="html=1;verticalAlign=bottom;endArrow=open;dashed=1;endSize=8;rounded=0;" parent="1" edge="1">
          <mxGeometry relative="1" as="geometry">
            <mxPoint x="750" y="520" as="sourcePoint" />
            <mxPoint x="650" y="520" as="targetPoint" />
            <Array as="points">
              <mxPoint x="690" y="520" />
            </Array>
          </mxGeometry>
        </mxCell>
        <mxCell id="dhr_ioXj1obli_dX_mUs-53" value="par" style="shape=umlFrame;whiteSpace=wrap;html=1;" parent="1" vertex="1">
          <mxGeometry x="-200" y="720" width="1280" height="360" as="geometry" />
        </mxCell>
        <mxCell id="dhr_ioXj1obli_dX_mUs-54" value="" style="rounded=0;whiteSpace=wrap;html=1;" parent="1" vertex="1">
          <mxGeometry x="630" y="990" width="20" height="60" as="geometry" />
        </mxCell>
        <mxCell id="dhr_ioXj1obli_dX_mUs-55" value="" style="rounded=0;whiteSpace=wrap;html=1;" parent="1" vertex="1">
          <mxGeometry x="630" y="780" width="20" height="100" as="geometry" />
        </mxCell>
        <mxCell id="dhr_ioXj1obli_dX_mUs-56" value="" style="rounded=0;whiteSpace=wrap;html=1;" parent="1" vertex="1">
          <mxGeometry x="870" y="780" width="20" height="60" as="geometry" />
        </mxCell>
        <mxCell id="dhr_ioXj1obli_dX_mUs-57" value="" style="endArrow=open;endFill=1;endSize=12;html=1;rounded=0;entryX=-0.053;entryY=0.168;entryDx=0;entryDy=0;entryPerimeter=0;" parent="1" target="dhr_ioXj1obli_dX_mUs-55" edge="1">
          <mxGeometry width="160" relative="1" as="geometry">
            <mxPoint x="-140" y="799" as="sourcePoint" />
            <mxPoint x="100" y="800" as="targetPoint" />
          </mxGeometry>
        </mxCell>
        <mxCell id="dhr_ioXj1obli_dX_mUs-58" value="&lt;br&gt;&lt;span style=&quot;color: rgb(0, 0, 0); font-family: Helvetica; font-size: 11px; font-style: normal; font-variant-ligatures: normal; font-variant-caps: normal; font-weight: 400; letter-spacing: normal; orphans: 2; text-align: center; text-indent: 0px; text-transform: none; widows: 2; word-spacing: 0px; -webkit-text-stroke-width: 0px; background-color: rgb(255, 255, 255); text-decoration-thickness: initial; text-decoration-style: initial; text-decoration-color: initial; float: none; display: inline !important;&quot;&gt;Search music ( )&lt;/span&gt;&lt;br&gt;" style="text;html=1;strokeColor=none;fillColor=none;align=center;verticalAlign=middle;whiteSpace=wrap;rounded=0;" parent="1" vertex="1">
          <mxGeometry x="210" y="770" width="90" height="30" as="geometry" />
        </mxCell>
        <mxCell id="dhr_ioXj1obli_dX_mUs-59" value="" style="endArrow=open;endFill=1;endSize=12;html=1;rounded=0;entryX=0.072;entryY=0.319;entryDx=0;entryDy=0;entryPerimeter=0;" parent="1" target="dhr_ioXj1obli_dX_mUs-56" edge="1">
          <mxGeometry width="160" relative="1" as="geometry">
            <mxPoint x="650" y="800" as="sourcePoint" />
            <mxPoint x="810" y="800" as="targetPoint" />
          </mxGeometry>
        </mxCell>
        <mxCell id="dhr_ioXj1obli_dX_mUs-60" value="Song ( )" style="html=1;verticalAlign=bottom;endArrow=open;dashed=1;endSize=8;rounded=0;entryX=1;entryY=0.5;entryDx=0;entryDy=0;" parent="1" target="dhr_ioXj1obli_dX_mUs-55" edge="1">
          <mxGeometry relative="1" as="geometry">
            <mxPoint x="870" y="830" as="sourcePoint" />
            <mxPoint x="790" y="830" as="targetPoint" />
          </mxGeometry>
        </mxCell>
        <mxCell id="dhr_ioXj1obli_dX_mUs-61" value="Search ()&amp;nbsp;" style="text;html=1;strokeColor=none;fillColor=none;align=center;verticalAlign=middle;whiteSpace=wrap;rounded=0;" parent="1" vertex="1">
          <mxGeometry x="730" y="780" width="60" height="30" as="geometry" />
        </mxCell>
        <mxCell id="dhr_ioXj1obli_dX_mUs-62" value="Pay music ()&amp;nbsp;" style="text;html=1;strokeColor=none;fillColor=none;align=center;verticalAlign=middle;whiteSpace=wrap;rounded=0;" parent="1" vertex="1">
          <mxGeometry x="235" y="850" width="75" height="30" as="geometry" />
        </mxCell>
        <mxCell id="dhr_ioXj1obli_dX_mUs-63" value="" style="endArrow=none;dashed=1;html=1;rounded=0;entryX=0.5;entryY=1;entryDx=0;entryDy=0;" parent="1" target="dhr_ioXj1obli_dX_mUs-9" edge="1">
          <mxGeometry width="50" height="50" relative="1" as="geometry">
            <mxPoint x="880" y="1090" as="sourcePoint" />
            <mxPoint x="910" y="140" as="targetPoint" />
          </mxGeometry>
        </mxCell>
        <mxCell id="dhr_ioXj1obli_dX_mUs-64" value="" style="endArrow=open;endFill=1;endSize=12;html=1;rounded=0;entryX=0;entryY=0.5;entryDx=0;entryDy=0;" parent="1" target="dhr_ioXj1obli_dX_mUs-54" edge="1">
          <mxGeometry width="160" relative="1" as="geometry">
            <mxPoint x="-140" y="1020" as="sourcePoint" />
            <mxPoint x="20" y="1020" as="targetPoint" />
          </mxGeometry>
        </mxCell>
        <mxCell id="dhr_ioXj1obli_dX_mUs-65" value="Downloaded (quality)" style="text;html=1;strokeColor=none;fillColor=none;align=center;verticalAlign=middle;whiteSpace=wrap;rounded=0;" parent="1" vertex="1">
          <mxGeometry x="190" y="1000" width="120" height="30" as="geometry" />
        </mxCell>
        <mxCell id="dhr_ioXj1obli_dX_mUs-66" value="" style="rounded=0;whiteSpace=wrap;html=1;" parent="1" vertex="1">
          <mxGeometry x="870" y="985" width="20" height="60" as="geometry" />
        </mxCell>
        <mxCell id="dhr_ioXj1obli_dX_mUs-67" value="" style="endArrow=open;endFill=1;endSize=12;html=1;rounded=0;entryX=-0.05;entryY=0.612;entryDx=0;entryDy=0;entryPerimeter=0;" parent="1" target="dhr_ioXj1obli_dX_mUs-66" edge="1">
          <mxGeometry width="160" relative="1" as="geometry">
            <mxPoint x="650" y="1020" as="sourcePoint" />
            <mxPoint x="810" y="1020" as="targetPoint" />
          </mxGeometry>
        </mxCell>
        <mxCell id="dhr_ioXj1obli_dX_mUs-68" value="Downloaded (quality)" style="text;html=1;strokeColor=none;fillColor=none;align=center;verticalAlign=middle;whiteSpace=wrap;rounded=0;" parent="1" vertex="1">
          <mxGeometry x="680" y="1000" width="130" height="30" as="geometry" />
        </mxCell>
        <mxCell id="dhr_ioXj1obli_dX_mUs-69" value="" style="rounded=0;whiteSpace=wrap;html=1;" parent="1" vertex="1">
          <mxGeometry x="990" y="990" width="20" height="60" as="geometry" />
        </mxCell>
        <mxCell id="dhr_ioXj1obli_dX_mUs-70" value="" style="endArrow=open;endFill=1;endSize=12;html=1;rounded=0;" parent="1" edge="1">
          <mxGeometry width="160" relative="1" as="geometry">
            <mxPoint x="890" y="1020" as="sourcePoint" />
            <mxPoint x="990" y="1020" as="targetPoint" />
          </mxGeometry>
        </mxCell>
        <mxCell id="dhr_ioXj1obli_dX_mUs-71" value="Download ( )" style="text;html=1;strokeColor=none;fillColor=none;align=center;verticalAlign=middle;whiteSpace=wrap;rounded=0;" parent="1" vertex="1">
          <mxGeometry x="890" y="1000" width="80" height="30" as="geometry" />
        </mxCell>
        <mxCell id="dhr_ioXj1obli_dX_mUs-72" value="" style="endArrow=none;dashed=1;html=1;rounded=0;exitX=0.001;exitY=0.639;exitDx=0;exitDy=0;exitPerimeter=0;entryX=1;entryY=0.636;entryDx=0;entryDy=0;entryPerimeter=0;" parent="1" source="dhr_ioXj1obli_dX_mUs-73" target="dhr_ioXj1obli_dX_mUs-73" edge="1">
          <mxGeometry width="50" height="50" relative="1" as="geometry">
            <mxPoint x="-230" y="1010" as="sourcePoint" />
            <mxPoint x="-180" y="960" as="targetPoint" />
          </mxGeometry>
        </mxCell>
        <mxCell id="dhr_ioXj1obli_dX_mUs-73" value="opt" style="shape=umlFrame;whiteSpace=wrap;html=1;" parent="1" vertex="1">
          <mxGeometry x="-260" y="690" width="1400" height="440" as="geometry" />
        </mxCell>
        <mxCell id="dhr_ioXj1obli_dX_mUs-74" value="" style="endArrow=open;endFill=1;endSize=12;html=1;rounded=0;entryX=0.25;entryY=1;entryDx=0;entryDy=0;" parent="1" target="dhr_ioXj1obli_dX_mUs-55" edge="1">
          <mxGeometry width="160" relative="1" as="geometry">
            <mxPoint x="-150" y="880" as="sourcePoint" />
            <mxPoint x="10" y="880" as="targetPoint" />
          </mxGeometry>
        </mxCell>
        <mxCell id="dhr_ioXj1obli_dX_mUs-75" value="" style="endArrow=none;dashed=1;html=1;rounded=0;entryX=1.004;entryY=0.38;entryDx=0;entryDy=0;entryPerimeter=0;" parent="1" target="dhr_ioXj1obli_dX_mUs-73" edge="1">
          <mxGeometry width="50" height="50" relative="1" as="geometry">
            <mxPoint x="-260" y="860" as="sourcePoint" />
            <mxPoint x="-210" y="810" as="targetPoint" />
          </mxGeometry>
        </mxCell>
        <mxCell id="dhr_ioXj1obli_dX_mUs-76" value="" style="shape=umlDestroy;whiteSpace=wrap;html=1;strokeWidth=3;" parent="1" vertex="1">
          <mxGeometry x="505" y="280" width="30" height="30" as="geometry" />
        </mxCell>
        <mxCell id="dhr_ioXj1obli_dX_mUs-77" value="" style="shape=umlDestroy;whiteSpace=wrap;html=1;strokeWidth=3;" parent="1" vertex="1">
          <mxGeometry x="385" y="250" width="30" height="30" as="geometry" />
        </mxCell>
        <mxCell id="dhr_ioXj1obli_dX_mUs-78" value="" style="endArrow=open;endFill=1;endSize=12;html=1;rounded=0;entryX=0;entryY=1;entryDx=0;entryDy=0;" parent="1" target="dhr_ioXj1obli_dX_mUs-16" edge="1">
          <mxGeometry width="160" relative="1" as="geometry">
            <mxPoint x="170" y="230" as="sourcePoint" />
            <mxPoint x="330" y="230" as="targetPoint" />
          </mxGeometry>
        </mxCell>
        <mxCell id="dhr_ioXj1obli_dX_mUs-79" value="Notify ( )" style="text;html=1;align=center;verticalAlign=middle;resizable=0;points=[];autosize=1;strokeColor=none;fillColor=none;" parent="1" vertex="1">
          <mxGeometry x="290" y="210" width="70" height="30" as="geometry" />
        </mxCell>
        <mxCell id="dhr_ioXj1obli_dX_mUs-80" value="ResendOTP()" style="text;html=1;align=center;verticalAlign=middle;resizable=0;points=[];autosize=1;strokeColor=none;fillColor=none;" parent="1" vertex="1">
          <mxGeometry x="165" y="480" width="100" height="30" as="geometry" />
        </mxCell>
        <mxCell id="dhr_ioXj1obli_dX_mUs-81" value="" style="endArrow=open;endFill=1;endSize=12;html=1;rounded=0;entryX=0;entryY=0.5;entryDx=0;entryDy=0;" parent="1" edge="1">
          <mxGeometry width="160" relative="1" as="geometry">
            <mxPoint x="-140" y="500" as="sourcePoint" />
            <mxPoint x="630" y="500" as="targetPoint" />
          </mxGeometry>
        </mxCell>
        <mxCell id="dhr_ioXj1obli_dX_mUs-82" value="" style="endArrow=none;dashed=1;html=1;rounded=0;entryX=0.5;entryY=1;entryDx=0;entryDy=0;" parent="1" target="dhr_ioXj1obli_dX_mUs-6" edge="1">
          <mxGeometry width="50" height="50" relative="1" as="geometry">
            <mxPoint x="640" y="1170" as="sourcePoint" />
            <mxPoint x="660" y="110" as="targetPoint" />
          </mxGeometry>
        </mxCell>
      </root>
    </mxGraphModel>
  </diagram>
</mxfile>
